<?xml version="1.0" encoding="UTF-8" standalone="no"?><!DOCTYPE svg PUBLIC "-//W3C//DTD SVG 1.1//EN" "http://www.w3.org/Graphics/SVG/1.1/DTD/svg11.dtd"><svg width="100%" height="100%" viewBox="0 0 12 12" version="1.1" xmlns="http://www.w3.org/2000/svg" xmlns:xlink="http://www.w3.org/1999/xlink" xml:space="preserve" style="fill-rule:evenodd;clip-rule:evenodd;stroke-linejoin:round;stroke-miterlimit:1.41421;"><path id="Search-Icon" d="M11.778,11.778c-0.295,0.296 -0.774,0.296 -1.069,0l-2.319,-2.319c-0.876,0.655 -1.96,1.046 -3.137,1.046c-2.901,0 -5.253,-2.351 -5.253,-5.252c0,-2.901 2.352,-5.253 5.253,-5.253c2.901,0 5.253,2.352 5.253,5.253c0,1.177 -0.392,2.261 -1.047,3.137l2.319,2.319c0.296,0.295 0.296,0.774 0,1.069Zm-6.525,-10.277c-2.072,0 -3.752,1.68 -3.752,3.752c0,2.072 1.68,3.752 3.752,3.752c2.072,0 3.752,-1.68 3.752,-3.752c0,-2.072 -1.68,-3.752 -3.752,-3.752Z" style="fill:#d9d9d9;"/></svg>